{
	"asset":{
		"generator":"Khronos glTF Blender I/O v4.4.55",
		"version":"2.0"
	},
	"extensionsUsed":[
		"KHR_materials_specular",
		"KHR_materials_ior"
	],
	"scene":0,
	"scenes":[
		{
			"name":"Scene",
			"nodes":[
				0
			]
		}
	],
	"nodes":[
		{
			"mesh":0,
			"name":"134 - pedalata virtuale"
		}
	],
	"materials":[
		{
			"doubleSided":true,
			"name":"Material.003",
			"pbrMetallicRoughness":{
				"baseColorFactor":[
					0.48943400382995605,
					0.0038960000965744257,
					0.0029070000164210796,
					1
				],
				"metallicFactor":0.3312169909477234,
				"roughnessFactor":0.21394813060760498
			}
		},
		{
			"doubleSided":true,
			"extensions":{
				"KHR_materials_specular":{
					"specularFactor":0.5679020285606384
				},
				"KHR_materials_ior":{
					"ior":1.4500000476837158
				}
			},
			"name":"hub",
			"pbrMetallicRoughness":{
				"metallicFactor":0.6400089859962463,
				"roughnessFactor":0.15751808881759644
			}
		},
		{
			"doubleSided":true,
			"extensions":{
				"KHR_materials_specular":{
					"specularFactor":0.443477988243103
				},
				"KHR_materials_ior":{
					"ior":1.4500000476837158
				}
			},
			"name":"cable_inner",
			"pbrMetallicRoughness":{
				"baseColorFactor":[
					0.07658004760742188,
					0.021833470091223717,
					0.009383432567119598,
					1
				],
				"metallicFactor":0.3521740138530731,
				"roughnessFactor":0.3029240369796753
			}
		},
		{
			"doubleSided":true,
			"name":"cables_outer",
			"pbrMetallicRoughness":{
				"baseColorFactor":[
					0.13758397102355957,
					0.13758397102355957,
					0.13758397102355957,
					1
				],
				"metallicFactor":0,
				"roughnessFactor":0.525658369064331
			}
		},
		{
			"doubleSided":true,
			"extensions":{
				"KHR_materials_specular":{
					"specularFactor":0
				},
				"KHR_materials_ior":{
					"ior":1.4500000476837158
				}
			},
			"name":"BOLTS",
			"pbrMetallicRoughness":{
				"baseColorFactor":[
					0.017573999240994453,
					0.016565000638365746,
					0.01974800042808056,
					1
				],
				"metallicFactor":0.22273798286914825,
				"roughnessFactor":0.05131673812866211
			}
		},
		{
			"doubleSided":true,
			"name":"haedspacers",
			"pbrMetallicRoughness":{
				"baseColorFactor":[
					0.009134000167250633,
					0.010255999863147736,
					0.010528000071644783,
					1
				],
				"metallicFactor":0,
				"roughnessFactor":0.05131673812866211
			}
		},
		{
			"doubleSided":true,
			"name":"seatpost",
			"pbrMetallicRoughness":{
				"baseColorFactor":[
					0.019538000226020813,
					0.019538000226020813,
					0.019538000226020813,
					1
				],
				"metallicFactor":0,
				"roughnessFactor":0.525658369064331
			}
		},
		{
			"doubleSided":true,
			"name":"saddle",
			"pbrMetallicRoughness":{
				"baseColorFactor":[
					0.4333060085773468,
					0.2326049953699112,
					0.06552200019359589,
					1
				],
				"metallicFactor":0,
				"roughnessFactor":0.525658369064331
			}
		},
		{
			"doubleSided":true,
			"name":"seatpost_clamp",
			"pbrMetallicRoughness":{
				"baseColorFactor":[
					0.5983989834785461,
					0.5983989834785461,
					0.5983989834785461,
					1
				],
				"metallicFactor":0.32608699798583984,
				"roughnessFactor":0.525658369064331
			}
		},
		{
			"doubleSided":true,
			"extensions":{
				"KHR_materials_specular":{
					"specularFactor":0.4695659875869751
				},
				"KHR_materials_ior":{
					"ior":1.4500000476837158
				}
			},
			"name":"headset",
			"pbrMetallicRoughness":{
				"baseColorFactor":[
					0.800000011920929,
					0.800000011920929,
					0.800000011920929,
					1
				],
				"metallicFactor":0.365217000246048,
				"roughnessFactor":0.41016650199890137
			}
		},
		{
			"doubleSided":true,
			"extensions":{
				"KHR_materials_specular":{
					"specularFactor":0.012703999876976013
				},
				"KHR_materials_ior":{
					"ior":1.4500000476837158
				}
			},
			"name":"tyre",
			"pbrMetallicRoughness":{
				"baseColorFactor":[
					0.028690999373793602,
					0.028690999373793602,
					0.028690999373793602,
					1
				],
				"metallicFactor":0,
				"roughnessFactor":0.2868518829345703
			}
		},
		{
			"doubleSided":true,
			"extensions":{
				"KHR_materials_specular":{
					"specularFactor":0.42078399658203125
				},
				"KHR_materials_ior":{
					"ior":1.4500000476837158
				}
			},
			"name":"rim",
			"pbrMetallicRoughness":{
				"baseColorFactor":[
					0.4036090075969696,
					0.4036090075969696,
					0.4036090075969696,
					1
				],
				"metallicFactor":0.6097699999809265,
				"roughnessFactor":0.11183816194534302
			}
		},
		{
			"doubleSided":true,
			"extensions":{
				"KHR_materials_specular":{
					"specularFactor":0.5272619724273682
				},
				"KHR_materials_ior":{
					"ior":1.4500000476837158
				}
			},
			"name":"spoke",
			"pbrMetallicRoughness":{
				"baseColorFactor":[
					0.6808609962463379,
					0.6707649827003479,
					0.7466890215873718,
					1
				],
				"metallicFactor":0.2691420018672943,
				"roughnessFactor":0.11536931991577148
			}
		},
		{
			"doubleSided":true,
			"name":"stem",
			"pbrMetallicRoughness":{
				"baseColorFactor":[
					0.016196999698877335,
					0.01775999926030636,
					0.027444999665021896,
					1
				],
				"metallicFactor":0,
				"roughnessFactor":0.05131673812866211
			}
		},
		{
			"doubleSided":true,
			"name":"stem_bolts",
			"pbrMetallicRoughness":{
				"baseColorFactor":[
					0.05496841296553612,
					0.05496841296553612,
					0.05496841296553612,
					1
				],
				"metallicFactor":0,
				"roughnessFactor":0.05131673812866211
			}
		},
		{
			"doubleSided":true,
			"name":"handlebar",
			"pbrMetallicRoughness":{
				"baseColorFactor":[
					0.8149999976158142,
					0.8309999704360962,
					0.8389999866485596,
					1
				],
				"roughnessFactor":0.146185040473938
			}
		},
		{
			"doubleSided":true,
			"name":"Material",
			"pbrMetallicRoughness":{
				"baseColorFactor":[
					0.014698099344968796,
					0.02909187600016594,
					0.017768999561667442,
					1
				],
				"metallicFactor":0,
				"roughnessFactor":0.5
			}
		}
	],
	"meshes":[
		{
			"name":"roadbike.1.0",
			"primitives":[
				{
					"attributes":{
						"POSITION":0,
						"NORMAL":1,
						"TEXCOORD_0":2
					},
					"indices":3,
					"material":0
				},
				{
					"attributes":{
						"POSITION":4,
						"NORMAL":5,
						"TEXCOORD_0":6
					},
					"indices":7,
					"material":1
				},
				{
					"attributes":{
						"POSITION":8,
						"NORMAL":9,
						"TEXCOORD_0":10
					},
					"indices":11,
					"material":2
				},
				{
					"attributes":{
						"POSITION":12,
						"NORMAL":13,
						"TEXCOORD_0":14
					},
					"indices":15,
					"material":3
				},
				{
					"attributes":{
						"POSITION":16,
						"NORMAL":17,
						"TEXCOORD_0":18
					},
					"indices":19,
					"material":4
				},
				{
					"attributes":{
						"POSITION":20,
						"NORMAL":21,
						"TEXCOORD_0":22
					},
					"indices":23,
					"material":5
				},
				{
					"attributes":{
						"POSITION":24,
						"NORMAL":25,
						"TEXCOORD_0":26
					},
					"indices":27,
					"material":6
				},
				{
					"attributes":{
						"POSITION":28,
						"NORMAL":29,
						"TEXCOORD_0":30
					},
					"indices":31,
					"material":7
				},
				{
					"attributes":{
						"POSITION":32,
						"NORMAL":33,
						"TEXCOORD_0":34
					},
					"indices":35,
					"material":8
				},
				{
					"attributes":{
						"POSITION":36,
						"NORMAL":37,
						"TEXCOORD_0":38
					},
					"indices":39,
					"material":9
				},
				{
					"attributes":{
						"POSITION":40,
						"NORMAL":41,
						"TEXCOORD_0":42
					},
					"indices":43,
					"material":10
				},
				{
					"attributes":{
						"POSITION":44,
						"NORMAL":45,
						"TEXCOORD_0":46
					},
					"indices":47,
					"material":11
				},
				{
					"attributes":{
						"POSITION":48,
						"NORMAL":49,
						"TEXCOORD_0":50
					},
					"indices":51,
					"material":12
				},
				{
					"attributes":{
						"POSITION":52,
						"NORMAL":53,
						"TEXCOORD_0":54
					},
					"indices":55,
					"material":13
				},
				{
					"attributes":{
						"POSITION":56,
						"NORMAL":57,
						"TEXCOORD_0":58
					},
					"indices":59,
					"material":14
				},
				{
					"attributes":{
						"POSITION":60,
						"NORMAL":61,
						"TEXCOORD_0":62
					},
					"indices":63,
					"material":15
				},
				{
					"attributes":{
						"POSITION":64,
						"NORMAL":65,
						"TEXCOORD_0":66
					},
					"indices":67,
					"material":16
				}
			]
		}
	],
	"accessors":[
		{
			"bufferView":0,
			"componentType":5126,
			"count":719,
			"max":[
				0.6087319254875183,
				1.2546015977859497,
				0.049103379249572754
			],
			"min":[
				-0.7161093950271606,
				0.34880220890045166,
				-0.08058949559926987
			],
			"type":"VEC3"
		},
		{
			"bufferView":1,
			"componentType":5126,
			"count":719,
			"type":"VEC3"
		},
		{
			"bufferView":2,
			"componentType":5126,
			"count":719,
			"type":"VEC2"
		},
		{
			"bufferView":3,
			"componentType":5123,
			"count":4227,
			"type":"SCALAR"
		},
		{
			"bufferView":4,
			"componentType":5126,
			"count":25350,
			"max":[
				0.636062741279602,
				1.3112022876739502,
				0.15221856534481049
			],
			"min":[
				-0.7523531913757324,
				0.1960223913192749,
				-0.1568099409341812
			],
			"type":"VEC3"
		},
		{
			"bufferView":5,
			"componentType":5126,
			"count":25350,
			"type":"VEC3"
		},
		{
			"bufferView":6,
			"componentType":5126,
			"count":25350,
			"type":"VEC2"
		},
		{
			"bufferView":7,
			"componentType":5123,
			"count":39309,
			"type":"SCALAR"
		},
		{
			"bufferView":8,
			"componentType":5126,
			"count":3,
			"max":[
				0.2210228443145752,
				1.070444941520691,
				-0.02243022993206978
			],
			"min":[
				-0.31590691208839417,
				1.0116949081420898,
				-0.02660384029150009
			],
			"type":"VEC3"
		},
		{
			"bufferView":9,
			"componentType":5126,
			"count":3,
			"type":"VEC3"
		},
		{
			"bufferView":10,
			"componentType":5126,
			"count":3,
			"type":"VEC2"
		},
		{
			"bufferView":11,
			"componentType":5123,
			"count":3,
			"type":"SCALAR"
		},
		{
			"bufferView":12,
			"componentType":5126,
			"count":1333,
			"max":[
				0.4614901542663574,
				1.22882080078125,
				0.21792390942573547
			],
			"min":[
				-0.7496191263198853,
				0.41699495911598206,
				-0.20481403172016144
			],
			"type":"VEC3"
		},
		{
			"bufferView":13,
			"componentType":5126,
			"count":1333,
			"type":"VEC3"
		},
		{
			"bufferView":14,
			"componentType":5126,
			"count":1333,
			"type":"VEC2"
		},
		{
			"bufferView":15,
			"componentType":5123,
			"count":1611,
			"type":"SCALAR"
		},
		{
			"bufferView":16,
			"componentType":5126,
			"count":339,
			"max":[
				-0.1378290206193924,
				0.4594521224498749,
				0.05847146734595299
			],
			"min":[
				-0.680670976638794,
				0.30496224761009216,
				0.012050718069076538
			],
			"type":"VEC3"
		},
		{
			"bufferView":17,
			"componentType":5126,
			"count":339,
			"type":"VEC3"
		},
		{
			"bufferView":18,
			"componentType":5126,
			"count":339,
			"type":"VEC2"
		},
		{
			"bufferView":19,
			"componentType":5123,
			"count":429,
			"type":"SCALAR"
		},
		{
			"bufferView":20,
			"componentType":5126,
			"count":193,
			"max":[
				0.35162386298179626,
				1.259061574935913,
				0.026174571365118027
			],
			"min":[
				-0.6906988024711609,
				0.2976837456226349,
				-0.024630099534988403
			],
			"type":"VEC3"
		},
		{
			"bufferView":21,
			"componentType":5126,
			"count":193,
			"type":"VEC3"
		},
		{
			"bufferView":22,
			"componentType":5126,
			"count":193,
			"type":"VEC2"
		},
		{
			"bufferView":23,
			"componentType":5123,
			"count":630,
			"type":"SCALAR"
		},
		{
			"bufferView":24,
			"componentType":5126,
			"count":132,
			"max":[
				-0.36185500025749207,
				1.2855393886566162,
				0.017365487292408943
			],
			"min":[
				-0.48861685395240784,
				0.998036801815033,
				-0.02473803609609604
			],
			"type":"VEC3"
		},
		{
			"bufferView":25,
			"componentType":5126,
			"count":132,
			"type":"VEC3"
		},
		{
			"bufferView":26,
			"componentType":5126,
			"count":132,
			"type":"VEC2"
		},
		{
			"bufferView":27,
			"componentType":5123,
			"count":300,
			"type":"SCALAR"
		},
		{
			"bufferView":28,
			"componentType":5126,
			"count":139,
			"max":[
				-0.2873166799545288,
				1.3358007669448853,
				0.06903013586997986
			],
			"min":[
				-0.6040576696395874,
				1.2780364751815796,
				-0.08032294362783432
			],
			"type":"VEC3"
		},
		{
			"bufferView":29,
			"componentType":5126,
			"count":139,
			"type":"VEC3"
		},
		{
			"bufferView":30,
			"componentType":5126,
			"count":139,
			"type":"VEC2"
		},
		{
			"bufferView":31,
			"componentType":5123,
			"count":822,
			"type":"SCALAR"
		},
		{
			"bufferView":32,
			"componentType":5126,
			"count":53,
			"max":[
				-0.3577776551246643,
				1.0356807708740234,
				0.01528899185359478
			],
			"min":[
				-0.41440343856811523,
				1.0082250833511353,
				-0.03230942413210869
			],
			"type":"VEC3"
		},
		{
			"bufferView":33,
			"componentType":5126,
			"count":53,
			"type":"VEC3"
		},
		{
			"bufferView":34,
			"componentType":5126,
			"count":53,
			"type":"VEC2"
		},
		{
			"bufferView":35,
			"componentType":5123,
			"count":306,
			"type":"SCALAR"
		},
		{
			"bufferView":36,
			"componentType":5126,
			"count":196,
			"max":[
				0.44555899500846863,
				1.1548426151275635,
				0.032986439764499664
			],
			"min":[
				0.3017335534095764,
				0.8611737489700317,
				-0.032405391335487366
			],
			"type":"VEC3"
		},
		{
			"bufferView":37,
			"componentType":5126,
			"count":196,
			"type":"VEC3"
		},
		{
			"bufferView":38,
			"componentType":5126,
			"count":196,
			"type":"VEC2"
		},
		{
			"bufferView":39,
			"componentType":5123,
			"count":1152,
			"type":"SCALAR"
		},
		{
			"bufferView":40,
			"componentType":5126,
			"count":1658,
			"max":[
				1.0062763690948486,
				1.2714433670043945,
				0.32012939453125
			],
			"min":[
				-1.1000310182571411,
				0.042877163738012314,
				-0.2877633571624756
			],
			"type":"VEC3"
		},
		{
			"bufferView":41,
			"componentType":5126,
			"count":1658,
			"type":"VEC3"
		},
		{
			"bufferView":42,
			"componentType":5126,
			"count":1658,
			"type":"VEC2"
		},
		{
			"bufferView":43,
			"componentType":5123,
			"count":9789,
			"type":"SCALAR"
		},
		{
			"bufferView":44,
			"componentType":5126,
			"count":709,
			"max":[
				0.972246527671814,
				0.8340411186218262,
				0.012722868472337723
			],
			"min":[
				-1.066792607307434,
				0.07656245678663254,
				-0.027744309976696968
			],
			"type":"VEC3"
		},
		{
			"bufferView":45,
			"componentType":5126,
			"count":709,
			"type":"VEC3"
		},
		{
			"bufferView":46,
			"componentType":5126,
			"count":709,
			"type":"VEC2"
		},
		{
			"bufferView":47,
			"componentType":5123,
			"count":4254,
			"type":"SCALAR"
		},
		{
			"bufferView":48,
			"componentType":5126,
			"count":2038,
			"max":[
				0.9610270261764526,
				0.8184012770652771,
				0.02417893335223198
			],
			"min":[
				-1.0481008291244507,
				0.08859723061323166,
				-0.05221882089972496
			],
			"type":"VEC3"
		},
		{
			"bufferView":49,
			"componentType":5126,
			"count":2038,
			"type":"VEC3"
		},
		{
			"bufferView":50,
			"componentType":5126,
			"count":2038,
			"type":"VEC2"
		},
		{
			"bufferView":51,
			"componentType":5123,
			"count":3312,
			"type":"SCALAR"
		},
		{
			"bufferView":52,
			"componentType":5126,
			"count":141,
			"max":[
				0.488187700510025,
				1.2698562145233154,
				0.026830561459064484
			],
			"min":[
				0.2589777410030365,
				1.1943999528884888,
				-0.02335582673549652
			],
			"type":"VEC3"
		},
		{
			"bufferView":53,
			"componentType":5126,
			"count":141,
			"type":"VEC3"
		},
		{
			"bufferView":54,
			"componentType":5126,
			"count":141,
			"type":"VEC2"
		},
		{
			"bufferView":55,
			"componentType":5123,
			"count":750,
			"type":"SCALAR"
		},
		{
			"bufferView":56,
			"componentType":5126,
			"count":64,
			"max":[
				0.47268566489219666,
				1.2672626972198486,
				0.015336940996348858
			],
			"min":[
				0.2641598880290985,
				1.2015455961227417,
				-0.01378061342984438
			],
			"type":"VEC3"
		},
		{
			"bufferView":57,
			"componentType":5126,
			"count":64,
			"type":"VEC3"
		},
		{
			"bufferView":58,
			"componentType":5126,
			"count":64,
			"type":"VEC2"
		},
		{
			"bufferView":59,
			"componentType":5123,
			"count":228,
			"type":"SCALAR"
		},
		{
			"bufferView":60,
			"componentType":5126,
			"count":154,
			"max":[
				0.6845558285713196,
				1.256575584411621,
				0.30480724573135376
			],
			"min":[
				0.43298935890197754,
				1.0925647020339966,
				-0.28008729219436646
			],
			"type":"VEC3"
		},
		{
			"bufferView":61,
			"componentType":5126,
			"count":154,
			"type":"VEC3"
		},
		{
			"bufferView":62,
			"componentType":5126,
			"count":154,
			"type":"VEC2"
		},
		{
			"bufferView":63,
			"componentType":5123,
			"count":771,
			"type":"SCALAR"
		},
		{
			"bufferView":64,
			"componentType":5126,
			"count":24,
			"max":[
				1.0543111562728882,
				0.0501776747405529,
				0.40523257851600647
			],
			"min":[
				-1.0652451515197754,
				0.004493907559663057,
				-0.4052869975566864
			],
			"type":"VEC3"
		},
		{
			"bufferView":65,
			"componentType":5126,
			"count":24,
			"type":"VEC3"
		},
		{
			"bufferView":66,
			"componentType":5126,
			"count":24,
			"type":"VEC2"
		},
		{
			"bufferView":67,
			"componentType":5123,
			"count":36,
			"type":"SCALAR"
		}
	],
	"bufferViews":[
		{
			"buffer":0,
			"byteLength":8628,
			"byteOffset":0,
			"target":34962
		},
		{
			"buffer":0,
			"byteLength":8628,
			"byteOffset":8628,
			"target":34962
		},
		{
			"buffer":0,
			"byteLength":5752,
			"byteOffset":17256,
			"target":34962
		},
		{
			"buffer":0,
			"byteLength":8454,
			"byteOffset":23008,
			"target":34963
		},
		{
			"buffer":0,
			"byteLength":304200,
			"byteOffset":31464,
			"target":34962
		},
		{
			"buffer":0,
			"byteLength":304200,
			"byteOffset":335664,
			"target":34962
		},
		{
			"buffer":0,
			"byteLength":202800,
			"byteOffset":639864,
			"target":34962
		},
		{
			"buffer":0,
			"byteLength":78618,
			"byteOffset":842664,
			"target":34963
		},
		{
			"buffer":0,
			"byteLength":36,
			"byteOffset":921284,
			"target":34962
		},
		{
			"buffer":0,
			"byteLength":36,
			"byteOffset":921320,
			"target":34962
		},
		{
			"buffer":0,
			"byteLength":24,
			"byteOffset":921356,
			"target":34962
		},
		{
			"buffer":0,
			"byteLength":6,
			"byteOffset":921380,
			"target":34963
		},
		{
			"buffer":0,
			"byteLength":15996,
			"byteOffset":921388,
			"target":34962
		},
		{
			"buffer":0,
			"byteLength":15996,
			"byteOffset":937384,
			"target":34962
		},
		{
			"buffer":0,
			"byteLength":10664,
			"byteOffset":953380,
			"target":34962
		},
		{
			"buffer":0,
			"byteLength":3222,
			"byteOffset":964044,
			"target":34963
		},
		{
			"buffer":0,
			"byteLength":4068,
			"byteOffset":967268,
			"target":34962
		},
		{
			"buffer":0,
			"byteLength":4068,
			"byteOffset":971336,
			"target":34962
		},
		{
			"buffer":0,
			"byteLength":2712,
			"byteOffset":975404,
			"target":34962
		},
		{
			"buffer":0,
			"byteLength":858,
			"byteOffset":978116,
			"target":34963
		},
		{
			"buffer":0,
			"byteLength":2316,
			"byteOffset":978976,
			"target":34962
		},
		{
			"buffer":0,
			"byteLength":2316,
			"byteOffset":981292,
			"target":34962
		},
		{
			"buffer":0,
			"byteLength":1544,
			"byteOffset":983608,
			"target":34962
		},
		{
			"buffer":0,
			"byteLength":1260,
			"byteOffset":985152,
			"target":34963
		},
		{
			"buffer":0,
			"byteLength":1584,
			"byteOffset":986412,
			"target":34962
		},
		{
			"buffer":0,
			"byteLength":1584,
			"byteOffset":987996,
			"target":34962
		},
		{
			"buffer":0,
			"byteLength":1056,
			"byteOffset":989580,
			"target":34962
		},
		{
			"buffer":0,
			"byteLength":600,
			"byteOffset":990636,
			"target":34963
		},
		{
			"buffer":0,
			"byteLength":1668,
			"byteOffset":991236,
			"target":34962
		},
		{
			"buffer":0,
			"byteLength":1668,
			"byteOffset":992904,
			"target":34962
		},
		{
			"buffer":0,
			"byteLength":1112,
			"byteOffset":994572,
			"target":34962
		},
		{
			"buffer":0,
			"byteLength":1644,
			"byteOffset":995684,
			"target":34963
		},
		{
			"buffer":0,
			"byteLength":636,
			"byteOffset":997328,
			"target":34962
		},
		{
			"buffer":0,
			"byteLength":636,
			"byteOffset":997964,
			"target":34962
		},
		{
			"buffer":0,
			"byteLength":424,
			"byteOffset":998600,
			"target":34962
		},
		{
			"buffer":0,
			"byteLength":612,
			"byteOffset":999024,
			"target":34963
		},
		{
			"buffer":0,
			"byteLength":2352,
			"byteOffset":999636,
			"target":34962
		},
		{
			"buffer":0,
			"byteLength":2352,
			"byteOffset":1001988,
			"target":34962
		},
		{
			"buffer":0,
			"byteLength":1568,
			"byteOffset":1004340,
			"target":34962
		},
		{
			"buffer":0,
			"byteLength":2304,
			"byteOffset":1005908,
			"target":34963
		},
		{
			"buffer":0,
			"byteLength":19896,
			"byteOffset":1008212,
			"target":34962
		},
		{
			"buffer":0,
			"byteLength":19896,
			"byteOffset":1028108,
			"target":34962
		},
		{
			"buffer":0,
			"byteLength":13264,
			"byteOffset":1048004,
			"target":34962
		},
		{
			"buffer":0,
			"byteLength":19578,
			"byteOffset":1061268,
			"target":34963
		},
		{
			"buffer":0,
			"byteLength":8508,
			"byteOffset":1080848,
			"target":34962
		},
		{
			"buffer":0,
			"byteLength":8508,
			"byteOffset":1089356,
			"target":34962
		},
		{
			"buffer":0,
			"byteLength":5672,
			"byteOffset":1097864,
			"target":34962
		},
		{
			"buffer":0,
			"byteLength":8508,
			"byteOffset":1103536,
			"target":34963
		},
		{
			"buffer":0,
			"byteLength":24456,
			"byteOffset":1112044,
			"target":34962
		},
		{
			"buffer":0,
			"byteLength":24456,
			"byteOffset":1136500,
			"target":34962
		},
		{
			"buffer":0,
			"byteLength":16304,
			"byteOffset":1160956,
			"target":34962
		},
		{
			"buffer":0,
			"byteLength":6624,
			"byteOffset":1177260,
			"target":34963
		},
		{
			"buffer":0,
			"byteLength":1692,
			"byteOffset":1183884,
			"target":34962
		},
		{
			"buffer":0,
			"byteLength":1692,
			"byteOffset":1185576,
			"target":34962
		},
		{
			"buffer":0,
			"byteLength":1128,
			"byteOffset":1187268,
			"target":34962
		},
		{
			"buffer":0,
			"byteLength":1500,
			"byteOffset":1188396,
			"target":34963
		},
		{
			"buffer":0,
			"byteLength":768,
			"byteOffset":1189896,
			"target":34962
		},
		{
			"buffer":0,
			"byteLength":768,
			"byteOffset":1190664,
			"target":34962
		},
		{
			"buffer":0,
			"byteLength":512,
			"byteOffset":1191432,
			"target":34962
		},
		{
			"buffer":0,
			"byteLength":456,
			"byteOffset":1191944,
			"target":34963
		},
		{
			"buffer":0,
			"byteLength":1848,
			"byteOffset":1192400,
			"target":34962
		},
		{
			"buffer":0,
			"byteLength":1848,
			"byteOffset":1194248,
			"target":34962
		},
		{
			"buffer":0,
			"byteLength":1232,
			"byteOffset":1196096,
			"target":34962
		},
		{
			"buffer":0,
			"byteLength":1542,
			"byteOffset":1197328,
			"target":34963
		},
		{
			"buffer":0,
			"byteLength":288,
			"byteOffset":1198872,
			"target":34962
		},
		{
			"buffer":0,
			"byteLength":288,
			"byteOffset":1199160,
			"target":34962
		},
		{
			"buffer":0,
			"byteLength":192,
			"byteOffset":1199448,
			"target":34962
		},
		{
			"buffer":0,
			"byteLength":72,
			"byteOffset":1199640,
			"target":34963
		}
	],
	"buffers":[
		{
			"byteLength":1199712,
			"uri":"134%20-%20Pedalata%20Virtuale.bin"
		}
	]
}
